<svg viewBox="0 0 33.867 22.49" xmlns="http://www.w3.org/2000/svg"><g fill-rule="evenodd" stroke-width=".654"><path d="M15.568.022c.051.012.135.012.186 0s.01-.021-.093-.021-.144.01-.093.021m-4.381.204c0 .124.02.14.227.168.467.063 1.09.407 1.371.757.411.512.394.318.434 5.161.034 4.279.04 4.552.104 4.516.057-.032.594 1.17.551 1.233q-.035.055.014.03c.07-.04.25.377.198.454q-.033.051.015.026c.033-.018.19.27.386.702a505.355 456.207 0 0 0 1.103 2.402c.424.918.76 1.688.743 1.711s.007.042.05.042c.067 0 .077-.482.077-3.61v-3.61l1.558-.003c2.03-.003 2.827-.14 4.06-.693.37-.166.549-.223.594-.19q.064.049.103-.01.035-.053-.018-.026c-.032.018-.072.012-.089-.013-.043-.063.275-.259.351-.216q.057.029.027-.017c-.045-.067.225-.26.305-.22q.051.025.02-.008c-.03-.033.075-.15.214-.284s.318-.32.399-.413.14-.147.133-.12.005.053.027.06q.133.04.043-.058c-.076-.082.077-.336.17-.284.032.018.04.008.02-.021-.047-.07.345-.783.411-.746.029.016.034.004.012-.028-.02-.03-.002-.159.043-.284.421-1.177.283-2.54-.372-3.66-.197-.337-.225-.415-.168-.48.059-.069.056-.07-.022-.015-.095.068-.247-.08-.162-.157q.03-.03-.02-.018c-.073.02-.614-.563-.565-.611q.028-.03-.023-.006c-.074.038-.195-.08-.14-.136.022-.022.008-.023-.03-.003-.085.044-.342-.156-.293-.228.02-.028.007-.034-.03-.013-.11.061-.233-.067-.153-.16.059-.068.056-.07-.023-.014-.103.073-.39-.056-.327-.148q.028-.044-.026-.017c-.073.041-.29-.055-.251-.112.015-.022-.002-.037-.039-.033-.162.016-.934-.322-.908-.398.02-.06.015-.063-.024-.012-.042.053-.149.042-.601-.06-1.12-.255-1.445-.27-5.626-.268l-3.852.003zm1.38.93c.152.154.147.152.147.06 0-.04-.012-.061-.027-.048s-.077-.014-.138-.06c-.08-.061-.076-.048.019.048m5.895.204q.794.136.737.22c-.016.023.011.029.062.011q.092-.031.053.024-.036.055.042.028c.1-.034.41.126.367.19-.018.026-.004.03.032.01.084-.046.34.107.292.175q-.034.052.03.017c.073-.041.603.395.559.46-.014.02.003.052.037.07q.064.037.019-.032c-.024-.037.02-.014.1.05s.13.146.117.18 0 .057.032.05c.081-.016.42.5.395.602-.013.051.001.072.036.052q.056-.029.022.05c-.02.047-.013.071.015.055.077-.043.253.536.325 1.071.086.639-.08 1.992-.229 1.858-.019-.017-.02.014-.005.068.034.117-.337.84-.411.8-.027-.016-.038.001-.022.038.036.084-.605.72-.682.677q-.049-.025-.02.02c.043.064-.265.27-.34.227-.03-.017-.049-.002-.04.033.008.036-.027.061-.079.057s-.079.013-.063.037c.039.055-.452.246-.548.213q-.07-.023-.036.03.039.056-.077.027c-.063-.015-.102-.007-.086.017.045.065-.103.052-.19-.017-.062-.05-.063-.047-.008.02.115.138-.8.277-1.842.28h-.6v-7.74h.795c.483 0 .957.028 1.21.072m5.236.518c.07.072.131.13.135.13.034 0 .01-.196-.028-.217-.028-.016-.05-.003-.05.029 0 .04-.027.038-.094-.008-.05-.036-.035-.006.036.066m-3.429.422c.05.05.115.078.143.063.064-.036-.032-.128-.15-.143-.074-.01-.074 0 .007.08m1.2 1.956c-.002.086.02.157.05.157.062 0 .062-.084 0-.217-.039-.08-.047-.07-.05.06m-8.354.06c0 .093.011.13.024.085a.426.385 0 0 0 0-.168c-.013-.047-.024-.009-.024.084m-4.257.656c-.035.013-.09.098-.124.189s-.083.153-.11.138c-.025-.014-.035.003-.02.038s-.215.573-.512 1.193a328.523 296.573 0 0 0-.567 1.187.06.06 0 0 1-.082.029q-.051-.027-.016.027c.053.078-.074.349-.145.31-.033-.02-.039-.008-.015.026.048.07-.232.686-.296.65-.025-.013-.033.005-.017.042s-.143.422-.353.856-.418.87-.462.968-.106.166-.136.15q-.048-.026-.014.028c.053.077-.074.348-.144.309q-.05-.026-.017.025c.076.112-.775 1.81-.856 1.71-.04-.048-.071-.066-.071-.04s.028.073.061.104c.047.042.019.145-.116.423-.16.33-.185.36-.248.282-.085-.105-.094-.053-.012.066.048.068.002.202-.234.685a64.341 58.084 0 0 0-.436.912c-.365.794-.633 1.292-.683 1.265q-.049-.026-.012.03c.054.079-.34.877-.412.836q-.051-.026-.014.029c.048.071-.127.445-.191.408-.025-.014-.032.006-.016.045.116.272-1.19 2.104-1.412 1.98-.033-.018-.053-.006-.044.027.022.092-.563.343-.863.369-.254.022-.268.03-.268.162v.138h4.994l.026-.12c.031-.148.008-.168-.19-.168-.819 0-1.28-.62-1.086-1.463.107-.463.477-1.345.541-1.292q.04.028.007-.023c-.054-.085.07-.405.141-.365q.053.029.019-.025c-.022-.032.097-.38.264-.777l.304-.72h6.041l.242.493c.732 1.49.9 1.864.864 1.917q-.034.053.016.027c.114-.063.494.931.494 1.291 0 .365-.444.9-.679.818-.04-.014-.059-.005-.042.019s-.043.056-.13.071l-.32.056c-.126.022-.16.053-.16.144v.116h6.55v-.144c0-.136-.011-.144-.211-.144-.242 0-.654-.133-.61-.197.015-.023-.01-.03-.056-.013-.254.088-1.555-1.53-1.442-1.795.015-.037.008-.057-.016-.043-.059.033-.335-.546-.291-.61q.027-.043-.022-.019c-.07.04-.198-.231-.144-.309q.035-.054-.015-.028c-.068.038-.405-.625-.354-.699q.029-.047-.02-.022c-.07.04-.197-.231-.144-.31q.035-.053-.016-.026c-.067.037-.135-.1-.085-.173q.027-.044-.02-.02c-.072.04-.198-.232-.145-.31q.034-.052-.013-.028c-.073.04-.362-.516-.309-.594q.045-.063-.029-.021c-.051.029-.06.017-.035-.043.02-.046.014-.071-.012-.057-.061.035-.23-.348-.184-.416q.029-.045-.018-.022c-.057.031-.1-.04-.342-.562-.083-.182-.137-.352-.118-.38s.01-.037-.02-.02c-.07.04-.354-.525-.303-.6q.034-.05-.02-.023c-.07.039-.14-.138-.087-.216.023-.033.016-.044-.017-.025-.086.048-.13-.115-.055-.203.059-.067.057-.07-.017-.019-.1.07-.362-.36-.286-.47.024-.036.02-.049-.013-.03-.071.04-.253-.327-.2-.404q.035-.054-.012-.03c-.072.04-.362-.516-.308-.594.025-.036.02-.049-.012-.03-.065.035-.348-.536-.3-.606q.026-.043-.022-.019c-.07.04-.197-.231-.144-.309q.034-.053-.013-.029c-.071.04-.625-1.048-.573-1.124q.037-.056-.017-.027c-.07.039-.141-.138-.088-.217.022-.031.016-.043-.015-.026-.072.04-.307-.42-.254-.498q.043-.063-.029-.021-.076.045-.035-.043c.019-.045.014-.07-.012-.057-.062.035-.231-.348-.184-.416q.034-.051-.035-.013-.075.045-.035-.043c.019-.046.014-.071-.012-.057-.064.036-.185-.242-.135-.314q.034-.053-.013-.029c-.072.04-.308-.42-.255-.498q.037-.056-.012-.03c-.071.04-.466-.76-.413-.837q.035-.053-.013-.029c-.067.038-.19-.195-.142-.266q.028-.046-.02-.021c-.064.036-.246-.335-.198-.404.033-.049.03-.05-.066-.014m19.668 1.183q.062.177.225.18c.274.003.683.336.781.636.073.222.056.78-.02.669-.019-.027-.035.031-.036.129-.003.212-.384.983-.463.938-.033-.018-.039-.006-.015.028.052.076-.448 1.02-.52.981-.03-.017-.036-.005-.014.026.05.074-.61 1.359-.678 1.32q-.046-.022-.018.022c.05.072-.019.21-.086.172q-.05-.026-.018.025c.051.075-.233.639-.303.6q-.049-.026-.015.027c.052.076-.448 1.02-.519.982-.031-.018-.036-.005-.012.03.05.072-.18.54-.245.504-.025-.014-.03.012-.01.057.021.05.014.071-.018.053-.029-.016-.05.018-.049.077s-.024.1-.06.094-.053.016-.038.05c.035.085-.32.766-.375.72q-.039-.029-.01.02c.068.106-.077.31-.173.243-.076-.054-.077-.05-.01.027.086.098-.228.779-.332.72q-.046-.022-.011.032c.052.075-.398.921-.47.882q-.044-.022-.015.023c.07.102-.08.306-.174.239-.076-.054-.077-.05-.01.027.08.09-.277.877-.372.824-.022-.012-.029.016-.015.062.013.047-.01.127-.052.178-.087.108-.287-.15-.227-.292q.029-.068-.032-.036-.062.035-.026-.048c.019-.045.015-.072-.008-.059-.06.033-.606-1.031-.571-1.112.015-.036.008-.055-.017-.04-.062.034-.242-.336-.196-.403.02-.029.01-.047-.023-.04-.076.017-.337-.525-.288-.597q.036-.053-.034-.015-.075.047-.035-.043c.02-.045.014-.07-.012-.056-.064.035-.185-.243-.135-.314q.034-.053-.013-.029c-.072.04-.308-.42-.255-.498q.038-.057-.014-.03c-.056.032-.527-.898-.513-1.013.004-.033-.01-.05-.033-.036-.06.032-.279-.45-.234-.514q.036-.053-.034-.015-.076.047-.035-.043.035-.083-.027-.048t-.027-.048c.02-.045.015-.071-.01-.057-.094.053-.342-.546-.264-.636.063-.072.06-.074-.013-.022-.073.05-.102.025-.21-.18l-.124-.24h-1.614c-.888 0-1.615.01-1.615.025s.072.17.161.346.149.35.134.386q-.024.061.034.03.063-.035.026.048-.035.084.027.049t.027.048c-.02.045-.015.07.01.057.065-.036.24.337.19.408q-.035.055.015.03c.07-.04.354.525.302.6-.021.03-.014.042.017.025.07-.04.252.326.2.403-.024.034-.02.048.01.03.07-.039 1 1.722.948 1.797q-.036.054.013.03c.072-.04.307.42.254.498q-.044.062.029.021.074-.045.035.043c-.019.046-.015.072.009.059.065-.037.773 1.347.725 1.417q-.038.055.015.028c.067-.037.135.1.086.173-.02.028-.012.038.017.022.043-.024.547.921 2.046 3.837.108.211.235.467.282.568.105.229.125.217.35-.201.099-.187.204-.326.233-.31s.036.006.017-.022c-.048-.072.075-.304.142-.267q.048.024.013-.028c-.047-.07.446-1.023.51-.987.025.014.03-.012.01-.057-.025-.06-.016-.072.035-.043q.073.04.031-.02c-.054-.078.228-.592.302-.55q.055.03.016-.03c-.054-.077.29-.729.362-.689q.046.023.018-.022c-.05-.072.018-.21.085-.172q.05.026.018-.025c-.057-.083.218-.599.295-.556q.06.033.023-.023c-.047-.07 1.085-2.177 1.15-2.14.024.013.028-.013.009-.058q-.041-.088.035-.043.07.038.035-.013c-.049-.07.237-.59.303-.554q.045.022.017-.022c-.05-.072.019-.21.086-.172q.048.024.02-.022c-.048-.07.237-.59.303-.553q.045.022.017-.022c-.05-.073.019-.21.086-.173.03.018.04.009.02-.02-.045-.067.017-.211.077-.177.026.014.031-.01.012-.056q-.036-.083.027-.048t.027-.048c-.026-.06-.017-.072.035-.044q.068.039.034-.013c-.044-.064.342-.784.402-.75.024.013.027-.014.007-.06-.025-.06-.016-.071.036-.042q.072.04.03-.02c-.047-.068.766-1.598.831-1.562.024.013.028-.013.009-.058q-.04-.088.035-.043.07.037.035-.013c-.048-.07.13-.399.196-.362q.046.023.018-.022c-.05-.072.019-.21.086-.172q.048.024.02-.022c-.048-.07.398-.878.464-.841q.043.021.015-.024c-.044-.064.289-.688.349-.655.023.014.027-.013.007-.058-.025-.06-.016-.072.036-.043q.07.038.033-.016c-.047-.069.44-.932.505-.895.026.015.031-.01.012-.056-.025-.06-.016-.072.036-.043q.07.038.033-.015c-.047-.07.116-.357.182-.32.028.015.04 0 .025-.035-.052-.13.288-.534.389-.463.08.057.083.055.019-.02-.219-.251.954-1.05 1.71-1.164.167-.026.2-.05.2-.149v-.118H28.49zM16.55 8.68c-.013.02-.004.08.02.133.037.083.043.079.046-.037.004-.13-.021-.166-.067-.096m12.246.188c-.02.043-.021.09-.006.104s.028-.001.028-.034.02-.048.045-.034.044-.007.044-.046c0-.094-.07-.089-.11.01M8.098 9.19c0 .033.085.251.19.485s.176.455.16.492-.007.056.02.041c.063-.035.128.149.078.222q-.034.052.02.024c.069-.039.14.138.086.216q-.032.051.016.026c.072-.04.785 1.528.731 1.607q-.041.06.031.019.076-.047.035.043c-.019.045-.014.071.01.057.064-.035.505.917.457.987q-.035.052.014.028c.043-.024.358.572.587 1.109.02.048-.497.06-2.48.06H5.547l.056-.144c.031-.082.08-.13.112-.113q.05.026.017-.025c-.052-.077.341-.927.411-.887q.05.026.014-.03c-.048-.07.12-.496.182-.46.024.013.042-.004.04-.036q-.01-.247.077-.2.059.033.021-.023c-.053-.078.074-.349.145-.31q.05.027.015-.027c-.053-.077.716-1.79.786-1.75.03.017.036.004.012-.03-.055-.081.124-.494.197-.454q.053.03.015-.028c-.047-.069.232-.733.293-.7.022.013.038-.004.037-.037-.007-.176.02-.278.068-.252a.128.115 0 0 1 .053.09m12.544.896c.015.022-.003.049-.039.06s-.013.031.05.046c.069.016.125.003.141-.035.015-.034-.02-.073-.076-.086-.057-.013-.091-.006-.076.015m-4.075.433c0 .079.01.144.02.144s.031-.065.044-.144.004-.145-.02-.145c-.025 0-.044.065-.044.145m-4.879-.041q-.038.055.032.016.074-.043.04.033c-.017.042 0 .072.042.072.053 0 .058-.024.02-.089-.062-.103-.082-.108-.134-.032m5.858 1.014q-.03.051.008.022c.038-.029.085.031.134.115.07.124.093.137.121.072q.034-.082-.027-.047t-.028-.045c.019-.045.01-.08-.02-.08s-.04-.022-.023-.048-.003-.049-.046-.049a.15.135 0 0 0-.119.06m-8.493.33c-.043.073-.043.116-.001.154.066.06.069.057.08-.123.011-.159 0-.164-.078-.03m3.97 1.297c-.023.037-.022.05.003.03s.077.012.114.072.068.087.07.059c.003-.11-.14-.233-.186-.161m-7.21 1.282c-.005.083.021.107.113.102q.127-.005.03-.027a.179.162 0 0 1-.114-.102q-.023-.088-.03.027m2.911.094a.6.6 0 0 0 .213-.002c.052-.012-.003-.021-.12-.02-.117 0-.16.01-.093.022m1.349-.015c.048.041.419.063.391.023-.016-.023-.115-.042-.221-.042s-.182.008-.17.019m4.91.473c-.008.087.001.094.046.036s.05-.052.031.029a.158.142 0 0 0 .065.15c.076.044.087.03.078-.094-.01-.126-.09-.226-.183-.228-.015 0-.032.048-.037.107m-4.275.728c0 .01.06.029.134.042.073.012.133.004.133-.019s-.06-.041-.133-.041-.134.008-.134.018m4.728.135c.035.121.102.15.14.06q.03-.073-.03-.04t-.032-.037c.018-.04.002-.072-.037-.072s-.056.037-.042.088m4.703.602c.007.116.196.359.226.29a.073.073 0 0 0-.045-.101c-.042-.015-.077-.059-.077-.097s-.024-.085-.053-.1-.052-.013-.051.008m-8.496.829a1 1 0 0 1 .042.123c.015.074.128.169.202.169.04 0 .026-.028-.031-.065-.062-.041-.086-.095-.064-.147q.035-.082-.027-.047-.06.032-.031-.038c.018-.043 0-.072-.046-.072q-.075.002-.045.076m4.874-.044c0 .04.023.105.051.144.046.064.052.064.052 0a.34.308 0 0 0-.052-.144c-.046-.064-.051-.064-.051 0m4.05.178c-.066.065-.066.072 0 .053.042-.013.105.01.14.053.037.042.066.054.067.026.004-.128-.127-.212-.207-.132m.405.673c-.016.024-.01.071.014.106.033.047.052.049.082.005a.098.088 0 0 0-.014-.105c-.03-.027-.066-.03-.082-.006m.462.82c.019.028.013.058-.013.067s-.015.044.026.078c.062.052.074.046.074-.033 0-.052-.028-.11-.061-.13-.036-.02-.048-.013-.027.018m-8.96.292c-.007.12.105.124.14.005.018-.059.014-.06-.03-.002-.042.054-.057.05-.078-.024s-.027-.071-.032.02m4.069.538c.114.106.22.192.235.192s-.067-.086-.182-.192-.22-.192-.235-.192.067.086.182.192m5.276-.036c.05.147.068.159.141.093.049-.044.048-.057-.004-.057-.037 0-.054-.02-.038-.043s-.008-.056-.053-.072c-.066-.023-.076-.006-.047.08m-10.637.621c-.028.214-.023.327.013.327.071 0 .107-.087.05-.12-.03-.016-.054-.051-.054-.078s.024-.034.053-.018.053-.003.053-.042c0-.092-.103-.154-.115-.07"/><path d="M13.145.074c.886.007 2.336.007 3.222 0S16.53.06 14.757.06s-2.498.006-1.612.014m4.98-.003c.052.012.136.012.187 0s.01-.022-.094-.022-.144.01-.093.022m-6.973.207q.008.12.116.13.115.01.017-.015c-.05-.014-.102-.072-.116-.13-.02-.088-.023-.086-.016.015m10.532.355c.054.045.688.317.688.296 0-.027-.615-.314-.673-.314q-.031.002-.015.018m-8.997.505c.069.075.155.178.192.228s.032.026-.012-.054C12.77 1.136 12.655 1 12.602 1c-.02 0 .018.062.086.138m10.058.021c0 .012.088.082.196.156s.179.11.158.08c-.042-.061-.354-.27-.354-.236m.772.61c.204.185.382.337.397.337s-.14-.152-.343-.337-.382-.336-.397-.336.14.151.343.336m-4.5-.254c.044.015.128.046.186.071.105.044.105.043.003-.03a.37.37 0 0 0-.187-.071c-.071.003-.072.007-.003.03m.554.216c.055.034.24.145.41.245.494.291.97.793 1.275 1.343.145.263.265.453.265.422 0-.405-1.132-1.652-1.758-1.938-.161-.073-.248-.105-.192-.072m-6.453.375c0 .092.01.13.024.084a.426.385 0 0 0 0-.168c-.013-.046-.024-.009-.024.084m11.252.673c.046.08.095.145.11.145s-.011-.065-.057-.145-.094-.144-.109-.144.01.065.056.144m-11.194.722c0 .171.01.241.02.156s.013-.227 0-.313-.02-.015-.02.157m.005 1.802c0 .582.008.814.017.515s.01-.775 0-1.058-.017-.039-.017.543m8.513-.673c0 .106.011.144.024.084s.012-.146-.001-.193c-.013-.046-.024.004-.023.11m3.415.552c0 .278.009.391.02.252a5.113 4.616 0 0 0 0-.504c-.011-.14-.02-.026-.02.252M8.9 5.015c0 .026.035.102.077.168s.076.099.076.072-.034-.102-.076-.168S8.9 4.99 8.9 5.015m.214.433c0 .026.046.124.103.216s.101.147.101.12-.046-.124-.101-.216c-.057-.093-.103-.147-.103-.12m12.578.216c0 .093.01.13.024.084a.426.385 0 0 0 0-.168c-.013-.046-.024-.008-.024.085m-.106.51c-.036.152-.056.284-.045.294.031.028.151-.458.13-.518-.012-.03-.05.071-.085.224m8.31-.137c.725.007 1.911.007 2.637 0s.131-.014-1.319-.014-2.043.006-1.318.014m-20.462.036c0 .026.034.102.076.168s.076.098.076.072-.034-.102-.076-.168-.076-.098-.076-.072m24.03.298a.5.5 0 0 0 .187 0c.05-.013.01-.022-.094-.022s-.144.01-.093.022m-20.284.832c0 .463.008.652.018.42a14.914 13.463 0 0 0 0-.84c-.01-.232-.018-.043-.018.42m19.731-.673c-.235.113-.728.514-.964.785-.095.11.03.014.279-.214.253-.233.57-.47.719-.54.146-.067.242-.123.213-.123s-.14.042-.247.092M9.647 6.507c0 .026.035.102.077.168s.076.098.076.072-.035-.102-.076-.168c-.042-.066-.077-.098-.077-.072m.427.865c0 .027.046.124.103.217s.101.146.101.12-.046-.124-.101-.217c-.057-.093-.103-.146-.103-.12m14.147.441c-.11.15-.155.238-.102.194.092-.075.36-.467.32-.467-.01 0-.108.123-.218.273m-3.633.124-.265.253.28-.239c.26-.222.304-.266.264-.266a4 4 0 0 0-.28.252m10.841.084c-.06.106-.096.193-.082.193.015 0 .076-.087.136-.193.06-.105.096-.192.082-.192-.015 0-.076.087-.136.192M10.5 8.238c0 .027.047.124.103.217s.102.146.102.12a.8.8 0 0 0-.102-.217c-.056-.092-.103-.146-.103-.12m-3.35.146c-.09.177-.073.215.024.054.045-.075.072-.145.06-.157s-.05.036-.085.103m6.026.166c0 .146.01.205.022.133a1.193 1.077 0 0 0 0-.265c-.012-.072-.022-.013-.022.133m10.289.108-.318.3.333-.287a5 5 0 0 0 .332-.3c0-.036-.052.008-.348.287m-4.419.084q-.102.04-.026.041a.6.6 0 0 0 .186-.04q.102-.041.026-.042a.6.6 0 0 0-.186.041m9.837.219c-.16.298-.143.34.023.053.073-.128.125-.242.114-.252s-.073.08-.137.199M10.82 8.863c0 .027.034.102.076.168s.076.099.076.073-.034-.103-.076-.169-.076-.098-.076-.072m2.353.24c.001.106.012.144.024.084s.013-.146 0-.192c-.014-.047-.025.003-.024.109m9.532.092c-.248.158-.283.203-.074.095.098-.05.203-.118.233-.152.08-.085.042-.072-.159.057m7.71.562c-.208.373-.369.686-.359.695s.192-.296.403-.678.372-.695.358-.695-.196.305-.403.678M6.669 9.394c-.09.177-.072.215.025.054.045-.075.072-.145.06-.156s-.05.035-.085.102m21.733.482c-.16.298-.143.34.022.053.074-.128.126-.242.115-.252s-.073.08-.137.199m-19.98.23c-.005.058.22.519.244.498.011-.01-.039-.135-.11-.278s-.133-.243-.134-.221m-2.258.348c-.125.236-.107.277.024.053.06-.102.098-.194.086-.204s-.06.057-.11.15m5.401-.098a.8.8 0 0 0 .102.216c.056.093.102.147.102.12s-.046-.123-.102-.216-.102-.147-.102-.12m16.516.146c-.09.177-.072.215.024.054.045-.075.072-.145.06-.157s-.05.036-.084.103m1.56.652c-.163.294-.288.542-.278.551s.156-.231.323-.534.292-.55.277-.55-.159.24-.322.533m-23.796-.027c-.125.237-.107.277.023.054.06-.102.099-.194.087-.204s-.06.057-.11.15m21.838.145c-.195.36-.177.402.023.053.088-.155.151-.29.14-.3s-.084.102-.163.247m-9.992.093c0 .027.058.146.128.265s.128.194.128.168-.058-.146-.128-.265-.128-.194-.128-.168m-4.04.217c.112.278.329.717.346.702.024-.021-.291-.707-.343-.749-.018-.014-.02.007-.003.047m-8.153.267c-.089.176-.072.214.024.053.046-.075.072-.145.06-.156s-.05.035-.084.103m21.839.096c-.16.298-.143.34.023.053.073-.128.125-.241.114-.251s-.073.08-.137.198m-18.046.07c.047.156.207.484.228.465.012-.01-.039-.136-.114-.278s-.126-.227-.114-.187m8.772.072c0 .027.034.103.076.168s.076.099.076.073-.034-.103-.076-.168-.076-.099-.076-.073m-12.885.435c-.089.177-.072.215.024.054.046-.075.072-.145.06-.157s-.05.036-.084.103m16.453-.002c0 .027.035.102.077.168s.076.099.076.073-.034-.103-.076-.169-.077-.098-.077-.072m5.278.242c-.089.177-.072.215.024.054.046-.075.072-.145.06-.156s-.05.035-.084.102m-21.89.097c-.09.177-.073.214.024.053.045-.075.072-.145.06-.156s-.05.035-.085.103m1.332 0c-.09.177-.072.214.024.053.045-.075.072-.145.06-.156s-.05.035-.084.103m3.35.046c0 .026.035.102.077.168s.076.098.076.072-.034-.102-.076-.168-.076-.098-.076-.072m8.842.144c0 .026.046.124.102.216s.102.147.102.12-.046-.123-.102-.216-.102-.147-.102-.12m9.94.243c-.196.36-.178.402.022.053.088-.155.152-.29.141-.3s-.084.102-.163.247M9.86 13.24c0 .026.034.102.076.167s.076.099.076.073-.034-.103-.076-.168-.076-.099-.076-.073m12.23.192c.049.093.098.16.11.15.024-.023-.138-.317-.174-.317-.013 0 .015.075.064.167m4.42.1c-.125.236-.107.277.024.053.06-.102.098-.194.087-.204s-.062.057-.11.15m-21.892.144c-.125.237-.107.278.024.054.06-.102.098-.194.087-.204s-.062.057-.11.15m14.189-.098c0 .026.058.145.128.265s.128.194.128.168-.058-.146-.128-.265c-.07-.118-.128-.194-.128-.168m9.287.414c-.105.188-.182.35-.172.359s.108-.145.216-.342.186-.359.172-.359-.111.154-.216.342m-22.28.021c-.089.177-.072.215.025.054.045-.075.072-.146.06-.157s-.05.036-.084.103m20.346.192c-.09.177-.073.215.024.054.045-.075.072-.145.06-.156s-.05.035-.084.102M4.326 14.3c-.089.177-.072.215.025.054.045-.075.072-.145.06-.156s-.05.035-.085.102m14.91.094c0 .027.07.167.155.313s.155.242.155.216-.07-.167-.155-.312-.155-.243-.155-.217m-15.095.291c-.125.237-.107.277.023.054.06-.102.099-.194.087-.204s-.06.057-.11.15m18.503-.146c0 .026.034.102.076.168s.076.098.076.072-.034-.102-.076-.168-.076-.099-.076-.072m3.202.29c-.16.299-.142.34.023.053.073-.128.125-.241.114-.25s-.073.079-.137.198m1.772.026c-.047.082-.076.157-.065.168s.061-.057.11-.15c.11-.207.072-.222-.046-.018m-4.812.02c0 .026.058.145.128.264s.128.195.128.168-.058-.145-.128-.264-.128-.195-.128-.168m-7.593.132c.02.06.059.13.085.155.027.026.022-.023-.011-.108-.067-.175-.13-.214-.074-.047m4.45.204c0 .027.058.146.128.264s.129.195.129.168-.058-.145-.129-.264c-.07-.119-.128-.194-.128-.168m7.689.125c-.047.081-.076.157-.064.167s.06-.056.11-.148c.109-.208.07-.223-.046-.02m-23.558.07c-.089.177-.072.215.025.054.045-.075.072-.145.06-.156s-.05.035-.085.102m21.678.145c-.09.177-.072.214.024.053.046-.075.072-.145.06-.156s-.05.035-.084.103m-2.295.046c0 .026.034.102.076.168s.076.098.076.072-.034-.102-.076-.168-.076-.098-.076-.072m-19.543.146c-.089.177-.072.215.024.054.045-.075.072-.146.06-.157s-.05.036-.084.103m1.682-.087c.095.01.251.01.346 0s.018-.02-.173-.02-.268.009-.173.02m.8-.001a.6.6 0 0 0 .213-.001c.05-.012-.004-.022-.12-.021-.118 0-.16.01-.093.022m2.608 0c.094.011.262.011.373.001s.033-.02-.173-.02-.295.01-.2.02m6.836.085c0 .026.034.102.076.168s.076.099.076.072-.034-.102-.076-.168-.076-.098-.076-.072m9.714.173c-.047.082-.076.157-.065.167s.061-.056.11-.148c.11-.208.071-.224-.046-.02m-5.292-.076c0 .027.082.19.181.361s.182.29.182.264-.082-.189-.182-.36-.18-.291-.18-.265m-8.843.048c0 .027.058.146.129.265s.128.195.128.168-.058-.145-.128-.264-.129-.195-.129-.169m-7.719.291c-.09.177-.072.215.024.054.046-.075.072-.145.06-.157s-.05.036-.084.103m20.022-.05c0 .026.034.102.076.168s.076.099.076.072-.034-.102-.076-.168-.076-.098-.076-.072m1.55.339c-.16.298-.142.34.023.053.074-.128.126-.241.115-.251s-.073.08-.137.198m-13.589-.05c0 .027.034.102.077.168s.076.099.076.072c0-.026-.034-.102-.076-.168s-.077-.098-.077-.072m-8.197.195c-.09.177-.072.214.024.053.045-.075.072-.145.06-.156s-.05.035-.084.103m11.447-.098c0 .026.058.145.129.264s.128.194.128.168-.058-.146-.128-.264-.129-.195-.129-.168m9.054.144c0 .026.046.124.103.216s.102.147.102.12-.046-.123-.102-.216c-.057-.093-.103-.146-.103-.12m-12.144.096c0 .026.034.102.076.168s.077.098.077.072-.034-.102-.077-.168-.076-.098-.076-.072m8.895 0c0 .026.034.102.076.168s.077.098.077.072-.035-.102-.077-.168-.076-.098-.076-.072m-17.438.243c-.125.237-.107.277.024.053.059-.101.098-.193.087-.204s-.062.058-.11.15m8.702.095c0 .026.034.102.076.168s.077.098.077.072-.035-.102-.077-.168-.076-.099-.076-.072m14.574.192c-.049.093-.078.168-.064.168.036 0 .198-.294.173-.317-.011-.01-.06.057-.11.15m-2.27-.001c0 .026.035.102.077.168s.076.098.076.072-.034-.102-.076-.168-.076-.098-.076-.072m-12.066.324c.02.06.059.13.085.156s.022-.023-.011-.108c-.067-.175-.13-.214-.074-.047m8.923-.036c0 .026.034.102.076.168s.077.099.077.072c0-.026-.035-.102-.077-.168s-.076-.098-.076-.072m4.908.627c-.123.224-.212.407-.198.407.035 0 .464-.775.44-.797-.01-.01-.12.166-.242.39m-13.696-.339c0 .027.034.103.076.168s.076.099.076.073-.034-.103-.076-.168-.076-.099-.076-.073m-9.662.34c-.125.236-.107.276.024.053.06-.102.098-.194.087-.204s-.061.057-.11.15m9.82-.002c0 .026.035.102.077.168s.076.099.076.073-.034-.103-.076-.169-.076-.098-.076-.072m13.188.627c-.125.237-.108.277.023.054.06-.102.099-.194.087-.204s-.06.057-.11.15m-23.6.394c-.108.153-.141.218-.073.145.135-.142.327-.421.291-.421-.011 0-.11.125-.218.276m19.786-.204c0 .027.034.103.076.168s.076.099.076.073-.034-.103-.076-.168-.076-.099-.076-.073m-8.993.313c0 .092.011.13.024.084a.426.385 0 0 0 0-.168c-.013-.046-.024-.009-.024.084m3.598.12c.031.053.171.194.312.313l.255.216-.288-.288-.312-.313c-.013-.013.002.02.033.073m-14.876.297c-.146.122-.194.177-.106.123.15-.092.445-.351.395-.346a3 3 0 0 0-.289.223m2.525.103A.6.6 0 0 0 4.03 20c.057.042.044.008-.034-.088-.14-.172-.192-.205-.111-.068m-3.191.272c-.073.038-.11.069-.08.069s.113-.031.186-.069.109-.069.08-.069-.113.031-.186.07m-.48.12c-.182.034-.182.035-.026.038a.9.9 0 0 0 .266-.039c.128-.05.022-.05-.24 0m4.488.034a.5.5 0 0 0 .186 0c.051-.012.01-.022-.093-.022s-.145.01-.094.022m6.818 0a.5.5 0 0 0 .186 0c.051-.012.01-.022-.093-.022s-.145.01-.094.022m6.046 0a.6.6 0 0 0 .213 0c.051-.013-.003-.022-.12-.022s-.16.01-.093.022m6.948.282c-.094.171-.17.327-.168.346s.087-.113.19-.294.179-.337.168-.347-.096.123-.19.295m-2.083-.003c0 .027.046.124.102.217s.102.146.102.12a.8.8 0 0 0-.102-.216c-.056-.093-.102-.147-.102-.12m-21.22.06c.708.007 1.883.007 2.61 0s.147-.015-1.288-.015-2.03.007-1.322.014m11.752 0c.932.008 2.442.008 3.355 0s.15-.013-1.695-.013-2.593.006-1.66.013m9.734.47c0 .026.034.101.076.167s.076.099.076.073-.034-.103-.076-.169-.076-.098-.076-.072m.267.529c0 .027.058.145.128.264s.129.195.129.168-.058-.145-.129-.264-.128-.195-.128-.168"/><path d="M11.365.092c.07.037.116.037.158-.001.043-.04.016-.053-.099-.052-.137.002-.145.008-.059.053M18.564.07a42 42 0 0 1 1.438.143c.116.017.138.01.08-.023C19.982.132 19 .035 18.63.046c-.238.006-.247.01-.065.023m-6.81.44c-.022.031-.028.057-.014.057s.063.013.11.03c.046.016.083.004.083-.028 0-.03-.021-.044-.048-.029s-.058.002-.07-.03c-.017-.045-.03-.045-.06 0m9.606.008c0 .02.049.049.107.063s.106.008.106-.013-.048-.05-.106-.063-.107-.008-.107.012m-8.948.325c0 .06.152.18.188.148.014-.013-.022-.063-.08-.11s-.108-.066-.108-.038m10.12.192c0 .021.048.065.107.098s.106.04.106.014-.048-.07-.106-.099-.107-.034-.107-.013m-6.036.286c-.02.017-.036 1.76-.036 3.87v3.839l.653-.004c.358-.002.699-.02.756-.04s-.225-.026-.626-.014l-.73.022V1.338l1.358-.03-.67-.01c-.368-.007-.686.003-.705.02m1.421.006c.015.02.106.042.203.049.133.008.158-.002.097-.037-.094-.057-.337-.066-.3-.012m-4.785.924c-.047.068-.02.703.033.778.025.037.044-.124.045-.381 0-.433-.012-.496-.079-.397m-.027 1.608c0 .107.084.128.092.023.005-.05-.015-.092-.042-.092s-.05.03-.05.069m8.576 1.304c0 .23.02.352.053.334.03-.016.053-.18.053-.364 0-.19-.023-.334-.053-.334s-.053.154-.053.364m12.089.822c.096.043.065.305-.036.305-.072 0-.077.012-.024.06s.076.045.117-.012c.07-.098.04-.35-.044-.365q-.057-.008-.013.012m-5.325.18c0 .107.03.174.088.193.102.036.174-.01.093-.058-.097-.059-.136-.216-.063-.258.05-.029.044-.039-.024-.04-.071 0-.094.04-.094.163m.693.349c0 .054.138.173.266.23.044.018.032 0-.026-.042a1.15 1.039 0 0 1-.173-.157c-.037-.045-.067-.058-.067-.03m.39.822-.007.276.051-.204c.029-.113.031-.236.007-.276-.03-.047-.048.026-.051.204m-.053.384a1.278 1.154 0 0 1-.055.12c-.012.02.001.036.028.036.028 0 .062-.054.076-.12.03-.138 0-.16-.05-.036M18.14 8.932l-.107.041.107.003a.383.346 0 0 0 .186-.044c.106-.062-.027-.062-.186 0m-10.2.385c-.121.215-.102.267.023.06.043-.073.08-.105.081-.072s.029.06.062.06q.063.002-.005-.07c-.035-.039-.049-.093-.03-.12s.022-.05.005-.05-.077.086-.137.192m5.233.264c.001.106.012.144.024.084s.013-.146 0-.193-.025.003-.024.11m.003.504c0 .145.01.205.022.132a1.193 1.077 0 0 0 0-.264c-.013-.073-.022-.013-.022.132m6.508.096c-.102.04-.102.042.01.045.065.002.132-.018.15-.045q.06-.085-.16 0m-3.222 3.636c0 3.227-.009 3.63-.08 3.577-.11-.083-.1-.026.013.077.089.08.095-.09.12-3.566l.026-3.65.427.016c.547.02.504-.018-.067-.06l-.44-.032zm1.811-3.587-.826.027.879.006c.483.002.939-.012 1.012-.033.153-.045.245-.045-1.065 0m.253.999c-.49.007-.892.028-.892.048s.557.029 1.238.022c1.896-.019 2.214-.034 1.318-.06a40.906 36.927 0 0 0-1.664-.01m-11.72.588c-.015.052-.009.096.014.096s.055-.044.07-.096.009-.097-.014-.097-.055.044-.07.097m-1.2 2.68c.017.079.179.085 2.481.085h2.463l-2.456-.012c-2.149-.012-2.451-.023-2.425-.085.017-.04.006-.072-.025-.072s-.047.038-.038.084m1.416 1.152a.6.6 0 0 0 .213 0c.051-.013-.003-.022-.12-.022-.118 0-.16.01-.093.022m.879 0c.081.012.2.012.266 0s0-.02-.147-.02-.2.01-.119.02m1.813.002c.257.01.665.01.905 0s.03-.016-.469-.016-.694.007-.436.016m-5.996 3.311c-.021.02-.037.09-.035.16l.003.124.052-.117c.055-.125.043-.224-.02-.167m8.617.981c-.054.053-.086.107-.071.12s.078-.03.141-.097c.137-.142.07-.164-.07-.023m-8.229.083c0 .02.048.064.107.097s.106.044.106.023-.048-.063-.106-.096-.107-.044-.107-.024m.883.259a.34.308 0 0 1 .031.168c-.008.056.019.113.06.127.057.02.066-.012.042-.146-.017-.094-.064-.181-.105-.194q-.076-.024-.028.045m6.325.011c0 .04.038.057.097.043.053-.013.084-.042.068-.066-.046-.067-.165-.05-.165.023m12.073 2.157c0 .053.147.047.184-.008.017-.024-.017-.042-.076-.037s-.108.024-.108.045"/></g></svg>