<svg xmlns="http://www.w3.org/2000/svg" xml:space="preserve" viewBox="23.518 4.241 64 102.554" width="64" height="102.554">
  <path d="M74.41 106.795a13.1 13.1 0 0 1-9.272-3.836L27.355 65.176a13.1 13.1 0 0 1-3.817-9.639 13.1 13.1 0 0 1 3.817-9.658L65.137 8.077a13.1 13.1 0 0 1 9.273-3.836 13.128 13.128 0 0 1 9.272 22.381L54.786 55.518l28.896 28.896a13.11 13.11 0 0 1 0 18.545 13.1 13.1 0 0 1-9.272 3.836m0-96.386a6.94 6.94 0 0 0-4.916 2.024L32.443 50.236c-1.369 1.369-1.292 3.219-1.292 5.166v.231c0 1.966-.096 3.798 1.292 5.166l37.436 37.783a6.55 6.55 0 0 0 4.723 2.024 6.75 6.75 0 0 0 4.819-2.024 6.94 6.94 0 0 0-.039-9.812L48.251 57.696a3.084 3.084 0 0 1-.019-4.357l31.094-31.094a6.94 6.94 0 0 0 0-9.812 6.94 6.94 0 0 0-4.916-2.023"/>
</svg>
